<svg xmlns="http://www.w3.org/2000/svg" width="77.1" height="74" viewBox="0 0 77.1 74">
  <g id="Layer_2" data-name="Layer 2">
    <g id="Layer_1-2" data-name="Layer 1">
      <g>
        <path d="M13.3,24.1h0a.5.5,0,0,0,.4-.2,31.5,31.5,0,0,1,57.2,0,.5.5,0,0,0,.4.2h5.1l.4-.2c0-.1.1-.3,0-.4a37.1,37.1,0,0,0-69,0,.6.6,0,0,0,.1.4l.3.2Z" style="fill: #fdc300"/>
        <path d="M42.7,14.2h0V9.5a.4.4,0,0,0-.4-.4A27.9,27.9,0,0,0,17.9,23.5a.3.3,0,0,0,0,.4c.1.2.2.2.4.2h5.9a22.3,22.3,0,0,1,18.2-9.3A.5.5,0,0,0,42.7,14.2Z" style="fill: #fdc300"/>
        <path d="M77.1,50h0l-.4-.2H71.6c-.2,0-.4.1-.4.3a31.5,31.5,0,0,1-57.2,0c-.1-.2-.2-.3-.4-.3H8.5a.5.5,0,0,0-.4.2.5.5,0,0,0,0,.5A37.1,37.1,0,0,0,63.7,67.4,37.7,37.7,0,0,0,77.1,50.5.4.4,0,0,0,77.1,50Z" style="fill: #fdc300"/>
        <path d="M42.6,64.9h0A27.9,27.9,0,0,0,67,50.5a.3.3,0,0,0,0-.4c-.1-.2-.2-.3-.4-.3H61.1a.5.5,0,0,0-.4.2,22.2,22.2,0,0,1-18.1,9.3.5.5,0,0,0-.5.5v4.6A.5.5,0,0,0,42.6,64.9Z" style="fill: #fdc300"/>
        <path d="M47.4,41.9h0a.6.6,0,0,0-.7-.1,6.3,6.3,0,0,1-4.3,1.7,6.8,6.8,0,0,1-4.6-1.9,6.8,6.8,0,0,1,0-9.2,6.8,6.8,0,0,1,4.6-1.9,6.3,6.3,0,0,1,4.3,1.7.6.6,0,0,0,.7-.1L50,29.6a.6.6,0,0,0,.1-.4.5.5,0,0,0-.2-.4,10.9,10.9,0,0,0-7.5-3,11.2,11.2,0,0,0,0,22.3,10.9,10.9,0,0,0,7.5-3,.5.5,0,0,0,.2-.4.6.6,0,0,0-.1-.4Z" style="fill: #303b40"/>
        <path d="M8.7,34.8h0c-2-.9-3.2-1.4-3.2-2.4s1-1.6,2.3-1.6a6.6,6.6,0,0,1,3.9,1.5c.2.2.4.3.6.2a.5.5,0,0,0,.5-.4l1.6-2.9a.8.8,0,0,0-.1-.9A9.3,9.3,0,0,0,7.8,26C3.6,26,.4,28.8.4,32.5S3.8,37.9,6.5,39s3.3,1.5,3.3,2.5S8,43.1,7.6,43.1a7.5,7.5,0,0,1-4.4-1.8.9.9,0,0,0-.6-.3.7.7,0,0,0-.5.4l-2,2.7c-.2.2-.1.6.1.9a10.3,10.3,0,0,0,7.4,3,7.2,7.2,0,0,0,5.3-2,6.1,6.1,0,0,0,2-4.6C14.9,37.3,11.3,35.8,8.7,34.8Z" style="fill: #303b40"/>
        <path d="M56.6,26.3H53a.9.9,0,0,0-.8.8V46.9a.8.8,0,0,0,.8.7h3.6a.7.7,0,0,0,.7-.7V27.1A.7.7,0,0,0,56.6,26.3Z" style="fill: #303b40"/>
        <path d="M73.6,43.1H65.8v-16a.9.9,0,0,0-.8-.8H61.4a.8.8,0,0,0-.7.8V46.9a.7.7,0,0,0,.7.7H73.6a.8.8,0,0,0,.8-.7V43.8A.8.8,0,0,0,73.6,43.1Z" style="fill: #303b40"/>
        <path d="M17.9,39.2H28.2a.7.7,0,0,0,.7-.7V35.4a.9.9,0,0,0-.7-.8H17.9a.8.8,0,0,0-.8.8v3.1A.7.7,0,0,0,17.9,39.2Z" style="fill: #303b40"/>
        <path d="M17.9,30.8H28.2a.7.7,0,0,0,.7-.7V27a.8.8,0,0,0-.7-.7H17.9a.7.7,0,0,0-.8.7v3.1A.7.7,0,0,0,17.9,30.8Z" style="fill: #303b40"/>
        <path d="M17.9,47.6H28.2a.8.8,0,0,0,.7-.8V43.7a.8.8,0,0,0-.7-.7H17.9a.7.7,0,0,0-.8.7v3.1A.8.8,0,0,0,17.9,47.6Z" style="fill: #303b40"/>
      </g>
    </g>
  </g>
</svg>
